PathFileType	4	(X/Y/Z)	C:\Users\dbl\Desktop\20210112\20210112\bx_n_5_902.trc
DataRate	CameraRate	NumFrames	NumMarkers	Units	OrigDataRate	OrigDataStartFrame	OrigNumFrames
50.00	50.00	       4	43	mm	50.00	69	       545
Frame#	Time	Top.Head			R.Acromium			L.Acromium			Sternum			R.ASIS			L.ASIS			V.Sacral			R.Thigh.Upper			R.Thigh.Front			R.Thigh.Rear			R.Knee.Lat			R.Knee.Med			R.Shank.Upper			R.Shank.Front			R.Shank.Rear			R.Ankle.Lat			R.Midfoot.Lat			R.Toe.Lat			R.Toe.Tip			R.Toe.Med			R.Ankle.Med			R.Midfoot.Sup			R.Heel			L.Thigh.Upper			L.Thigh.Front			L.Thigh.Rear			L.Knee.Lat			L.Knee.Med			L.Shank.Upper			L.Shank.Front			L.Shank.Rear			L.Ankle.Lat			L.Midfoot.Lat			L.Toe.Lat			L.Toe.Tip			L.Toe.Med			L.Ankle.Med			L.Midfoot.Sup			L.Heel			origin1 front left			origin2 front right			origin 3 back right			origin 4 back leftt			
		X1	Y1	Z1	X2	Y2	Z2	X3	Y3	Z3	X4	Y4	Z4	X5	Y5	Z5	X6	Y6	Z6	X7	Y7	Z7	X8	Y8	Z8	X9	Y9	Z9	X10	Y10	Z10	X11	Y11	Z11	X12	Y12	Z12	X13	Y13	Z13	X14	Y14	Z14	X15	Y15	Z15	X16	Y16	Z16	X17	Y17	Z17	X18	Y18	Z18	X19	Y19	Z19	X20	Y20	Z20	X21	Y21	Z21	X22	Y22	Z22	X23	Y23	Z23	X24	Y24	Z24	X25	Y25	Z25	X26	Y26	Z26	X27	Y27	Z27	X28	Y28	Z28	X29	Y29	Z29	X30	Y30	Z30	X31	Y31	Z31	X32	Y32	Z32	X33	Y33	Z33	X34	Y34	Z34	X35	Y35	Z35	X36	Y36	Z36	X37	Y37	Z37	X38	Y38	Z38	X39	Y39	Z39	X40	Y40	Z40	X41	Y41	Z41	X42	Y42	Z42	X43	Y43	Z43	

69	1.360	-211.60245	105.90106	1555.76367	-443.77292	-77.55656	1347.11426	-456.63858	270.97592	1360.41736	-525.03577	95.64143	1162.12805	-721.08582	-5.01644	1023.08551	-724.06897	240.27348	1043.88110	-911.47449	93.22050	1084.62280	-790.12073	-73.85857	870.45624	-703.51642	-4.31745	810.66571	-789.89825	-61.40222	753.32458	-782.93298	-34.34649	614.15784	-763.53326	75.78714	571.90570	-781.50195	-32.09430	565.93555	-724.59540	18.16036	526.16858	-808.84644	-46.93756	480.46753	-762.09290	-22.69495	204.90469	-648.28790	-67.34068	162.27164	-605.60193	-72.44162	158.48824	-548.97107	-22.88885	163.13913	-600.73724	29.08615	166.65816	-725.50745	67.69711	218.34610	-675.26068	52.74500	160.78772	-795.23865	35.51925	173.01709	-814.58215	289.09805	871.07574	-707.69275	224.40080	797.26642	-800.20471	279.77158	737.05042	-812.39111	255.71707	633.39136	-765.21869	147.14214	572.34839	-802.14050	250.63258	568.75104	-741.10797	209.09216	537.55365	-828.39233	262.12671	490.71005	-772.19641	230.55055	202.07201	-660.24420	298.73032	156.55775	-623.48834	306.62183	158.77870	-556.93921	253.25359	164.66724	-593.24323	218.64194	174.22929	-718.94476	157.31403	220.64011	-676.26929	174.00945	161.84825	-798.53149	181.78922	181.76237	-528.19757	304.03900	146.49176	-518.10291	-72.86003	143.53894	-875.77185	-78.63926	141.04852	-882.63641	296.15256	144.65297	
70	1.380	-201.97049	105.01567	1537.51440	-437.05728	-77.65031	1333.20483	-449.61896	270.10547	1347.21338	-524.57971	95.10077	1150.97241	-724.97906	-5.70488	1020.72058	-727.15222	239.28564	1042.14954	-913.73938	92.96974	1085.39563	-794.26831	-74.28027	869.85333	-707.35669	-4.98732	810.52881	-793.41187	-61.91609	752.80035	-785.69781	-34.81231	613.84564	-765.77167	75.49310	571.43555	-784.08667	-32.38139	565.60516	-726.74237	17.78537	526.27283	-810.86414	-47.08586	479.93262	-762.33759	-22.69134	204.72765	-648.20880	-67.45090	162.20235	-605.69080	-72.51659	158.40656	-549.01300	-22.84296	163.09137	-600.71759	29.03620	166.72218	-725.74316	67.47041	218.44638	-675.21234	52.70819	160.85654	-795.26440	35.51562	172.99931	-818.07300	288.86716	870.77136	-711.11304	223.74181	796.98291	-802.89380	279.83499	736.60663	-814.68738	255.62422	632.93555	-767.47302	147.01900	572.01965	-804.15015	250.47296	568.41022	-742.99921	208.87552	537.55243	-829.88434	262.10089	490.10992	-772.20569	230.65982	201.91043	-660.19208	298.70810	156.57309	-623.41852	306.58496	158.77101	-556.94531	253.11871	164.50331	-593.19208	218.56894	174.14772	-719.05981	157.32166	220.67715	-676.27771	174.11992	161.84383	-798.58459	181.90308	181.58379	-528.14655	304.02841	146.52679	-518.05634	-72.94123	143.56686	-875.78552	-78.62016	141.05280	-882.64056	296.13327	144.66518	
71	1.400	-192.92941	104.18894	1519.26221	-430.62149	-77.68919	1319.11035	-442.77988	269.34912	1333.78748	-524.01031	94.40401	1139.94873	-728.81909	-6.51917	1018.39960	-730.08185	238.30431	1040.41394	-915.91882	92.86604	1086.40527	-798.39063	-74.63412	869.04297	-711.08130	-5.67418	810.36060	-796.80756	-62.55656	752.28809	-788.41467	-35.21928	613.49048	-767.76538	75.17223	570.84479	-786.57593	-32.68995	565.28033	-728.85199	17.35958	526.37415	-812.91150	-47.22508	479.43402	-762.58777	-22.70399	204.54996	-648.17743	-67.59418	162.10663	-605.76685	-72.58649	158.28127	-549.04578	-22.78152	163.03075	-600.64258	28.91148	166.84848	-726.00739	67.20210	218.46730	-675.17950	52.65753	160.93846	-795.25964	35.48783	172.97516	-821.29706	288.34375	870.38806	-714.39319	222.96951	796.68494	-805.34753	279.74786	736.21552	-816.89246	255.48773	632.53253	-769.78113	146.85854	571.69391	-806.08289	250.29070	568.06036	-744.87952	208.62325	537.43378	-831.29834	262.08569	489.54019	-772.23901	230.71791	201.74205	-660.13568	298.68188	156.58487	-623.35492	306.49857	158.78827	-556.92993	252.94257	164.36006	-593.25305	218.49141	174.02863	-719.21680	157.33475	220.72469	-676.32520	174.23665	161.83574	-798.65448	181.98660	181.42961	-528.11859	304.01813	146.54543	-518.00854	-72.99756	143.60840	-875.79810	-78.61355	141.06291	-882.63440	296.12463	144.68312	
72	1.420	-184.37195	103.43976	1501.05420	-424.49869	-77.68498	1304.90356	-436.22061	268.67709	1320.16687	-523.20746	93.55965	1129.05212	-732.42480	-7.30794	1016.22992	-732.86749	237.48131	1038.62964	-918.04901	92.62524	1087.62000	-802.31085	-74.94525	868.09900	-714.55347	-6.37638	810.12799	-800.09265	-63.29626	751.75555	-790.99097	-35.53646	613.09821	-769.59802	74.83228	570.20087	-788.93164	-32.98731	564.93170	-730.89435	16.94316	526.41125	-814.89984	-47.44537	478.97293	-762.79077	-22.78853	204.44969	-648.20837	-67.77019	161.94119	-605.77899	-72.66186	158.14050	-549.03204	-22.70563	162.95378	-600.54199	28.74871	166.98193	-726.26471	66.86900	218.40823	-675.18274	52.55023	161.03169	-795.22040	35.40631	172.94626	-824.48035	287.61722	869.95996	-717.56006	222.13200	796.46478	-807.80737	279.49957	735.89215	-819.01196	255.30659	632.14844	-772.05811	146.64853	571.38464	-807.92719	250.11279	567.72571	-746.73792	208.34877	537.25653	-832.62561	262.10864	489.03610	-772.29834	230.73810	201.58994	-660.07764	298.65472	156.60199	-623.31195	306.36990	158.83804	-556.89417	252.73175	164.25569	-593.41083	218.37082	173.88396	-719.47528	157.34258	220.78816	-676.41895	174.33290	161.88397	-798.73865	182.05913	181.33154	-528.10205	304.00327	146.55687	-518.00250	-72.99916	143.64865	-875.80951	-78.62176	141.08223	-882.61060	296.13461	144.69624	
